# AST/ASF file generated using VICON BodyLanguage
# -----------------------------------------------
:version 1.10
:name VICON
:units
  mass 1.0
  length 0.45
  angle deg
:documentation
   .ast/.asf automatically generated from VICON data using
   VICON BodyBuilder and BodyLanguage model FoxedUp or BRILLIANT.MOD
:root
   order TX TY TZ RX RY RZ
   axis XYZ
   position 0 0 0  
   orientation 0 0 0 
:bonedata
  begin
     id 1 
     name lhipjoint
     direction 0.606768 -0.715223 0.346827 
     length 2.41543 
     axis 0 0 0  XYZ
  end
  begin
     id 2 
     name lfemur
     direction 0.34202 -0.939693 0  
     length 7.2778  
     axis 0 0 20  XYZ
    dof rx ry rz
    limits (-160.0 20.0)
           (-70.0 70.0)
           (-60.0 70.0)
  end
  begin
     id 3 
     name ltibia
     direction 0.34202 -0.939693 0   
     length 7.61811   
     axis 0 0 20   XYZ
    dof rx
    limits (-10.0 170.0)
  end
  begin
     id 4 
     name lfoot
     direction 0.0823924 -0.226371 0.97055   
     length 2.33618   
     axis -90 7.62852e-016 20   XYZ
    dof rx rz
    limits (-45.0 90.0)
           (-70.0 20.0)
  end
  begin
     id 5 
     name ltoes
     direction 1.53554e-011 -4.21934e-011 1   
     length 1.17015   
     axis -90 7.62852e-016 20   XYZ
    dof rx
    limits (-90.0 20.0)
  end
  begin
     id 6 
     name rhipjoint
     direction -0.6077 -0.714582 0.346516   
     length 2.4176  
     axis 0 0 0  XYZ 
  end
  begin
     id 7 
     name rfemur
     direction -0.34202 -0.939693 0   
     length 7.28127   
     axis 0 0 -20   XYZ
    dof rx ry rz
    limits (-160.0 20.0)
           (-70.0 70.0)
           (-70.0 60.0)
  end
  begin
     id 8 
     name rtibia
     direction -0.34202 -0.939693 0   
     length 7.77648   
     axis 0 0 -20   XYZ
    dof rx
    limits (-10.0 170.0)
 end
 begin
     id 9 
     name rfoot
     direction -0.0809463 -0.222398 0.97159   
     length 2.37533  
     axis -90 -7.62852e-016 -20   XYZ
    dof rx rz
    limits (-45.0 90.0)
           (-20.0 70.0)
  end
  begin
     id 10 
     name rtoes
     direction -1.53568e-011 -4.21714e-011 1   
     length 1.18972   
     axis -90 -7.62852e-016 -20   XYZ
    dof rx
    limits (-90.0 20.0)
  end
  begin
     id 11 
     name lowerback
     direction 0.010968 0.991932 -0.126297   
     length 2.21698   
     axis 0 0 0   XYZ
    dof rx ry rz
    limits (-20.0 45.0)
           (-30.0 30.0)
           (-30.0 30.0)
  end
  begin
     id 12 
     name upperback
     direction 0.0167007 0.997503 -0.0686276   
     length 2.22371   
     axis 0 0 0   XYZ
    dof rx ry rz
    limits (-20.0 45.0)
           (-30.0 30.0)
           (-30.0 30.0)
  end
  begin
     id 13 
     name thorax
     direction 0.0111721 0.999885 -0.0102878   
     length 2.25242   
     axis 0 0 0   XYZ
    dof rx ry rz
    limits (-20.0 45.0)
           (-30.0 30.0)
           (-30.0 30.0)
  end
  begin
     id 14 
     name lowerneck
     direction -0.0120265 0.990428 0.137508   
     length 1.57674   
     axis 0 0 0   XYZ
    dof rx ry rz
    limits (-20.0 45.0)
           (-30.0 30.0)
           (-30.0 30.0)
  end
  begin
     id 15 
     name upperneck
     direction 0.0175669 0.998907 0.0433089   
     length 1.5618   
     axis 0 0 0   XYZ
    dof rx ry rz
    limits (-20.0 45.0)
           (-30.0 30.0)
           (-30.0 30.0)
  end
  begin
     id 16
     name head
     direction 0.00754609 0.99997 0.00185367  
     length 1.60579  
     axis 0 0 0   XYZ
    dof rx ry rz
    limits (-20.0 45.0)
           (-30.0 30.0)
           (-30.0 30.0)
  end
  begin
     id 17 
     name lclavicle
     direction 0.885866 0.429166 -0.176231  
     length 3.44967  
     axis 0 0 0   XYZ
    dof ry rz
    limits (-20.0 10.0)
           (0.0 20.0)
  end
  begin
     id 18 
     name lhumerus
     direction 1 -4.48973e-011 -1.90255e-027   
     length 5.20607   
     axis 180 -30 -90   XYZ
    dof rx ry rz
    limits (-60.0 90.0)
           (-90.0 90.0)
           (-90.0 90.0)
  end
  begin
     id 19
     name lradius
     direction 1 -4.48956e-011 9.87925e-027   
     length 3.39961   
     axis 180 -30 -90   XYZ
    dof rx
    limits (-10.0 170.0)
  end
  begin
     id 20
     name lwrist
     direction 1 -4.48985e-011 1.73247e-026   
     length 1.6998   
     axis -9.60847e-015 90 90   XYZ
    dof ry
    limits (-180.0 0.0)
 end
  begin
     id 21 
     name lhand
     direction 1 -4.48798e-011 3.46119e-026   
     length 0.519693   
     axis -2.21073e-014 90 90   XYZ
    dof rx rz
    limits (-90.0 90.0)
           (-45.0 45.0)
  end
  begin
     id 22 
     name lfingers
     direction 1 -4.48938e-011 6.92797e-026   
     length 0.41899   
     axis -4.42155e-014 90 90   XYZ
    dof rx
    limits (0.0 90.0)
  end
  begin
     id 23
     name lthumb
     direction 0.707107 -6.34952e-011 0.707107   
     length 0.601588   
     axis -90 45 6.0103e-014   XYZ
    dof rx rz
    limits (-45.0 45.0)
           (-45.0 45.0)
  end
  begin
     id 24 
     name rclavicle
     direction -0.866736 0.456792 -0.200276   
     length 3.45032  
     axis 0 0 0   XYZ 
    dof ry rz
    limits (-10.0 20.0)
           (-20.0 0.0)
  end
  begin
     id 25 
     name rhumerus
     direction -1 -4.4897e-011 8.65094e-028  
     length 5.32214   
     axis 180 30 90   XYZ
    dof rx ry rz
    limits (-90.0 60.0)
           (-90.0 90.0)
           (-90.0 90.0)
  end
  begin
     id 26 
     name rradius
     direction -1 -4.48987e-011 1.08427e-026   
     length 3.51208   
     axis 180 30 90   XYZ
    dof rx
    limits (-10.0 170.0)
  end
  begin
     id 27 
     name rwrist
     direction -1 -4.48961e-011 1.73222e-026   
     length 1.75604   
     axis -9.60847e-015 -90 -90   XYZ
    dof ry
    limits (-180.0 0.0)
  end
  begin
     id 28
     name rhand
     direction -1 -4.48895e-011 3.46314e-026   
     length 0.586681   
     axis -2.21073e-014 -90 -90   XYZ
    dof rx rz
    limits (-90.0 90.0)
           (-45.0 45.0)
  end
  begin
     id 29
     name rfingers
     direction -1 -4.48968e-011 6.92916e-026   
     length 0.472997   
     axis -4.42155e-014 -90 -90   XYZ
    dof rx
    limits (0.0 90.0)
  end
  begin
     id 30
     name rthumb
     direction -0.707107 -6.34848e-011 0.707107   
     length 0.679133   
     axis -90 -45 -6.0103e-014   XYZ
    dof rx rz
    limits (-45.0 45.0)
           (-45.0 45.0)
  end
:hierarchy
  begin
    root lhipjoint rhipjoint lowerback
    lhipjoint lfemur
    lfemur ltibia
    ltibia lfoot
    lfoot ltoes
    rhipjoint rfemur
    rfemur rtibia
    rtibia rfoot
    rfoot rtoes
    lowerback upperback
    upperback thorax
    thorax lowerneck lclavicle rclavicle
    lowerneck upperneck
    upperneck head
    lclavicle lhumerus
    lhumerus lradius
    lradius lwrist
    lwrist lhand lthumb
    lhand lfingers
    rclavicle rhumerus
    rhumerus rradius
    rradius rwrist
    rwrist rhand rthumb
    rhand rfingers
  end

#!OML:ASF H:\Dans Jumps\Project 1\Capture day 1\Session 1\subject.ASF
:FULLY-SPECIFIED
:DEGREES
48
root 0.5176 17.6176 -13.5238 7.54318 -0.604879 -0.846306
lowerback -3.91556 -0.64783 -0.464098
upperback 1.2935 -0.894976 1.61859
thorax 3.56157 -0.474708 1.86627
lowerneck -13.2412 0.517907 -1.66991
upperneck 12.9923 1.0452 -0.0905977
head 6.10792 0.41559 0.338038
rclavicle 9.49197e-015 -4.77083e-015
rhumerus -28.2017 -20.4005 -77.3746
rradius 22.3695
rwrist 35.265
rhand -19.4894 -26.8841
rfingers 7.12502
rthumb 6.83277 -56.7539
lclavicle 9.49197e-015 -4.77083e-015
lhumerus -23.5441 6.23712 86.5395
lradius 14.5755
lwrist -1.12647
lhand -25.7422 -4.97648
lfingers 7.12502
lthumb 0.794717 25.0018
rfemur -10.9687 -3.47099 20.1561
rtibia 19.0636
rfoot -14.5563 -3.77396
rtoes 13.8507
lfemur -10.137 9.09627 -19.8627
ltibia 16.5646
lfoot -11.5758 4.09856
ltoes 1.46225
49
root 0.516373 17.6173 -13.5263 7.54341 -0.583284 -0.847049
lowerback -3.90464 -0.656508 -0.467165
upperback 1.29311 -0.906526 1.62376
thorax 3.55556 -0.480557 1.87262
lowerneck -13.2492 0.518941 -1.67398
upperneck 12.9757 1.04813 -0.0950658
head 6.10397 0.416565 0.337518
rclavicle -4.91992e-015 5.96354e-015
rhumerus -28.1851 -20.3862 -77.3915
rradius 22.3706
rwrist 35.2515
rhand -19.4942 -26.889
rfingers 7.12502
rthumb 6.82809 -56.7589
lclavicle -4.91992e-015 5.96354e-015
lhumerus -23.5324 6.18909 86.5538
lradius 14.5811
lwrist -1.09684
lhand -25.7389 -4.98936
lfingers 7.12502
lthumb 0.797913 24.9889
rfemur -10.986 -3.49984 20.1624
rtibia 19.0822
rfoot -14.5585 -3.76001
rtoes 13.8614
lfemur -10.1344 9.05796 -19.8577
ltibia 16.5394
lfoot -11.5699 4.1098
ltoes 1.47001
50
root 0.515233 17.617 -13.5288 7.53972 -0.560684 -0.852659
lowerback -3.89179 -0.664967 -0.464861
upperback 1.29493 -0.918147 1.6307
thorax 3.55071 -0.486361 1.87779
lowerneck -13.2586 0.519639 -1.67909
upperneck 12.9616 1.05109 -0.101069
head 6.10112 0.417361 0.336698
rclavicle 5.01931e-015 8.74653e-015
rhumerus -28.1663 -20.3733 -77.4076
rradius 22.3692
rwrist 35.2398
rhand -19.4981 -26.8858
rfingers 7.12502
rthumb 6.82434 -56.7558
lclavicle 5.01931e-015 8.74653e-015
lhumerus -23.5179 6.14511 86.5677
lradius 14.5845
lwrist -1.06549
lhand -25.7383 -4.99368
lfingers 7.12502
lthumb 0.798492 24.9846
rfemur -10.9969 -3.5233 20.174
rtibia 19.096
rfoot -14.5592 -3.75278
rtoes 13.8704
lfemur -10.1292 9.01678 -19.8463
ltibia 16.5175
lfoot -11.5678 4.1213
ltoes 1.47592
51
root 0.51415 17.6167 -13.5315 7.53457 -0.535123 -0.859973
lowerback -3.87767 -0.673756 -0.459768
upperback 1.297 -0.930353 1.6377
thorax 3.54537 -0.492393 1.88144
lowerneck -13.2676 0.520362 -1.68507
upperneck 12.951 1.05398 -0.105171
head 6.09924 0.418207 0.336627
rclavicle 7.50412e-015 -1.43125e-014
rhumerus -28.1477 -20.3565 -77.4255
rradius 22.3684
rwrist 35.2251
rhand -19.4939 -26.8802
rfingers 7.12502
rthumb 6.82841 -56.7501
lclavicle 7.50412e-015 -1.43125e-014
lhumerus -23.5042 6.1022 86.5804
lradius 14.5892
lwrist -1.03085
lhand -25.7367 -4.98371
lfingers 7.12502
lthumb 0.800018 24.9945
rfemur -11.0035 -3.54195 20.188
rtibia 19.1052
rfoot -14.559 -3.75461
rtoes 13.8811
lfemur -10.1247 8.9743 -19.832
ltibia 16.499
lfoot -11.568 4.12884
ltoes 1.48984
52
root 0.513106 17.6164 -13.5343 7.52968 -0.509506 -0.869782
lowerback -3.86553 -0.682165 -0.452729
upperback 1.29979 -0.942212 1.64597
thorax 3.54188 -0.498239 1.8853
lowerneck -13.2768 0.52076 -1.69093
upperneck 12.9433 1.05655 -0.110009
head 6.09834 0.418822 0.336287
rclavicle -1.0138e-014 -6.75868e-015
rhumerus -28.1289 -20.3294 -77.4459
rradius 22.3716
rwrist 35.2029
rhand -19.4839 -26.8679
rfingers 7.12502
rthumb 6.83801 -56.7375
lclavicle -1.0138e-014 -6.75868e-015
lhumerus -23.4887 6.0607 86.5935
lradius 14.5918
lwrist -0.997568
lhand -25.7399 -4.96656
lfingers 7.12502
lthumb 0.796945 25.0117
rfemur -11.009 -3.55322 20.2048
rtibia 19.1119
rfoot -14.559 -3.76413
rtoes 13.8983
lfemur -10.1215 8.93082 -19.8146
ltibia 16.4828
lfoot -11.57 4.1355
ltoes 1.50499
53
root 0.512106 17.616 -13.5373 7.52514 -0.481051 -0.881342
lowerback -3.85715 -0.691385 -0.44388
upperback 1.30438 -0.955317 1.65515
thorax 3.5424 -0.504706 1.88897
lowerneck -13.2866 0.521453 -1.69813
upperneck 12.9376 1.05946 -0.112495
head 6.09818 0.419702 0.33695
rclavicle 4.27387e-015 -2.38542e-014
rhumerus -28.1071 -20.2921 -77.4694
rradius 22.3759
rwrist 35.1746
rhand -19.4728 -26.8487
rfingers 7.12502
rthumb 6.84878 -56.718
lclavicle 4.27387e-015 -2.38542e-014
lhumerus -23.4721 6.0297 86.6044
lradius 14.5945
lwrist -0.974319
lhand -25.7403 -4.94502
lfingers 7.12502
lthumb 0.796602 25.0332
rfemur -11.0141 -3.56524 20.224
rtibia 19.1181
rfoot -14.5596 -3.77663
rtoes 13.9109
lfemur -10.1194 8.88857 -19.795
ltibia 16.4675
lfoot -11.5751 4.13702
ltoes 1.52591
